<?xml version="1.0" encoding="iso-8859-1"?>
<!-- Generator: Adobe Illustrator 19.0.0, SVG Export Plug-In . SVG Version: 6.00 Build 0)  -->
<svg version="1.1" id="Layer_1" xmlns="http://www.w3.org/2000/svg" xmlns:xlink="http://www.w3.org/1999/xlink" x="0px" y="0px"
	 viewBox="0 0 509.287 509.287" style="enable-background:new 0 0 509.287 509.287;" xml:space="preserve">
<circle style="fill:#F0582F;" cx="254.644" cy="254.644" r="254.644"/>
<polygon style="fill:#F8B517;" points="438.082,426.554 41.706,317.711 41.706,138.003 438.082,246.506 "/>
<polygon style="fill:#F1F3F7;" points="438.082,336.699 41.706,227.857 41.706,138.003 438.082,246.506 "/>
<polygon style="fill:#611A21;" points="438.082,268.207 41.706,159.364 41.706,138.003 438.082,246.506 "/>
<polygon style="fill:#D64E3C;" points="438.082,350.601 41.706,241.759 41.706,213.616 438.082,322.458 "/>
<path style="fill:#8E342D;" d="M41.706,138.003c0,0,91.211-82.395,261.764-82.395l134.612,191.237L41.706,138.003z"/>
<g>
	<path style="fill:#611A21;" d="M317.033,226.501v116.302c0,13.902,11.189,25.43,25.43,25.43c13.902,0,25.43-11.189,25.43-25.43
		V237.351L317.033,226.501z"/>
	<path style="fill:#611A21;" d="M266.511,205.139v45.775c0,13.902,11.189,25.43,25.43,25.43c13.902,0,25.43-11.189,25.43-25.43
		v-34.925L266.511,205.139z"/>
</g>
<path style="fill:#DEDEDF;" d="M133.595,132.238C168.519,113.928,215.65,87.82,256,85.785c33.229-5.764,38.993,7.46,26.448,20.344
	c-6.442,6.442-24.752,15.597-30.177,20.005c-5.425,4.069-12.207,8.138-14.919,14.58c-6.103,13.902,1.017,25.43,13.563,31.873
	c10.511,5.425,25.43,6.103,37.298,5.764c10.172-0.339,81.378-17.293,73.579,6.781c-3.73,11.528,14.58,16.615,18.31,5.086
	c9.155-27.804-14.241-44.419-40.689-42.045c-17.632,1.695-32.89,10.172-51.2,10.85c-34.925,1.017-26.109-16.275-13.902-24.752
	c11.528-10.511,28.143-13.902,35.264-29.499c12.546-27.126-8.477-39.332-31.873-38.993c-52.217,1.017-108.842,26.448-153.6,50.183
	C113.25,121.388,122.744,138.003,133.595,132.238L133.595,132.238z"/>
<g>
	<path style="fill:#BDBDBE;" d="M287.873,97.992c3.052-9.494-6.103-16.615-31.873-11.868c-40.35,1.695-87.481,27.804-122.405,46.114
		c-6.103,3.391-11.868-0.678-13.902-5.764c-2.713,6.781,5.086,16.615,13.902,11.868C168.519,120.371,215.65,93.923,256,92.228
		C275.666,88.498,285.499,91.889,287.873,97.992z"/>
	<path style="fill:#BDBDBE;" d="M263.799,152.583c1.356-4.069,5.764-8.477,10.172-11.528c11.528-10.511,28.143-13.902,35.264-29.499
		c3.391-7.121,4.069-12.885,3.391-17.971c-0.339,3.73-1.356,7.46-3.391,11.868c-7.121,15.258-23.735,18.988-35.264,29.499
		C266.85,139.698,261.086,147.158,263.799,152.583z"/>
	<path style="fill:#BDBDBE;" d="M287.873,178.691c-11.868,0.339-26.448-0.339-37.298-5.764c-8.138-4.408-14.241-10.85-15.258-18.988
		c-1.356,10.85,5.086,19.666,15.258,25.091c10.511,5.425,25.43,6.103,37.298,5.764c9.155-0.339,67.136-13.902,73.579,0.678
		C368.911,161.399,298.045,178.352,287.873,178.691z"/>
	<path style="fill:#BDBDBE;" d="M379.762,190.559c-3.052,9.155-15.597,7.799-18.31,1.017l0,0c-3.73,11.528,14.58,16.615,18.31,5.086
		c1.695-5.425,2.374-10.511,1.695-14.919C381.118,184.456,380.779,187.507,379.762,190.559z"/>
</g>
<g>
	<ellipse style="fill:#F0BA7A;" cx="190.22" cy="140.715" rx="4.069" ry="2.713"/>
	<ellipse style="fill:#F0BA7A;" cx="225.483" cy="114.607" rx="4.747" ry="2.374"/>
	<ellipse style="fill:#F0BA7A;" cx="163.772" cy="147.158" rx="5.764" ry="3.73"/>
	<ellipse style="fill:#F0BA7A;" cx="84.09" cy="130.204" rx="3.391" ry="1.695"/>
	<ellipse style="fill:#F0BA7A;" cx="214.972" cy="159.025" rx="5.764" ry="5.086"/>
	<ellipse style="fill:#F0BA7A;" cx="311.947" cy="135.629" rx="5.425" ry="4.069"/>
	<ellipse style="fill:#F0BA7A;" cx="328.562" cy="200.053" rx="8.477" ry="3.052"/>
	<ellipse style="fill:#F0BA7A;" cx="385.187" cy="217.685" rx="9.833" ry="4.069"/>
	<ellipse style="fill:#F0BA7A;" cx="161.06" cy="87.481" rx="8.816" ry="3.052"/>
	<ellipse style="fill:#F0BA7A;" cx="268.885" cy="106.808" rx="5.764" ry="5.086"/>
	<ellipse style="fill:#F0BA7A;" cx="326.527" cy="108.164" rx="6.442" ry="4.069"/>
</g>
<g>
</g>
<g>
</g>
<g>
</g>
<g>
</g>
<g>
</g>
<g>
</g>
<g>
</g>
<g>
</g>
<g>
</g>
<g>
</g>
<g>
</g>
<g>
</g>
<g>
</g>
<g>
</g>
<g>
</g>
</svg>
