<svg height="480pt" viewBox="0 -24 480 480" width="480pt" xmlns="http://www.w3.org/2000/svg"><path d="m8 200 344-128 120 128zm0 0" fill="#fdbd40"/><path d="m8 280h464v64h-464zm0 0" fill="#fdbd40"/><path d="m8 344h464v48c0 17.671875-14.328125 32-32 32h-432zm0 0" fill="#eb8cb3"/><path d="m8 200h464v80h-464zm0 0" fill="#eb8cb3"/><path d="m296 104c0 30.929688-25.070312 56-56 56s-56-25.070312-56-56 25.070312-56 56-56 56 25.070312 56 56zm0 0" fill="#e9686a"/><path d="m240 88c-4.417969 0-8-3.582031-8-8v-72c0-3.03125 1.710938-5.800781 4.421875-7.15625s5.953125-1.0625 8.378906.757812l32 24c3.535157 2.648438 4.25 7.664063 1.597657 11.199219-2.648438 3.535157-7.664063 4.25-11.199219 1.597657l-19.199219-14.398438v56c0 4.417969-3.582031 8-8 8zm0 0" fill="#36afad"/><path d="m479.472656 197.367188c-.082031-.222657-.121094-.445313-.214844-.65625-.355468-.800782-.835937-1.539063-1.425781-2.183594l-120-128c-2.203125-2.351563-5.601562-3.152344-8.625-2.03125l-56.40625 21c-6.921875-19.65625-24.179687-33.851563-44.800781-36.855469v-24.640625l19.199219 14.398438c3.535156 2.652343 8.550781 1.9375 11.199219-1.597657 2.652343-3.535156 1.9375-8.550781-1.597657-11.199219l-32-24c-2.425781-1.820312-5.667969-2.113281-8.378906-.757812s-4.421875 4.125-4.421875 7.15625v40.640625c-16.945312 2.394531-31.855469 12.433594-40.453125 27.230469-8.59375 14.800781-9.921875 32.726562-3.601563 48.632812l-182.738281 68c-.054687 0-.09375.070313-.160156.097656-.871094.457032-1.695313.992188-2.472656 1.597657-.25.273437-.484375.558593-.703125.855469-.382813.453124-.714844.949218-.992188 1.472656-.160156.355468-.292968.722656-.398437 1.097656-.214844.78125-.375 1.574219-.480469 2.375v224c0 4.417969 3.582031 8 8 8h432c22.082031-.027344 39.972656-17.917969 40-40v-192c-.105469-.890625-.285156-1.769531-.527344-2.632812zm-15.472656 74.632812h-448v-64h448zm-448 16h448v48h-448zm216-223.199219v15.199219c0 4.417969 3.582031 8 8 8s8-3.582031 8-8v-15.199219c20.121094 4.105469 33.863281 22.78125 31.796875 43.210938-2.0625 20.429687-19.261719 35.980469-39.796875 35.980469s-37.734375-15.550782-39.796875-35.980469c-2.066406-20.429688 11.675781-39.105469 31.796875-43.210938zm-36 73.757813c14.714844 18.820312 39.757812 26.214844 62.335938 18.414062 22.578124-7.804687 37.707031-29.085937 37.664062-52.972656 0-.871094-.089844-1.71875-.128906-2.574219l53.9375-20.074219 103.726562 110.648438h-401.09375zm268 253.441406c0 13.253906-10.746094 24-24 24h-424v-64h448zm0 0"/></svg>